<?xml version="1.0" encoding="UTF-8" standalone="no"?>
<svg
   version="1.1"
   x="0px"
   y="0px"
   viewBox="0 0 93 93"
   id="svg2"
   sodipodi:docname="hartmail.svg"
   inkscape:export-filename="noun-send-mail-1754163.png"
   inkscape:export-xdpi="270.6951"
   inkscape:export-ydpi="270.6951"
   width="93"
   height="93"
   inkscape:version="1.3 (0e150ed6c4, 2023-07-21)"
   xmlns:inkscape="http://www.inkscape.org/namespaces/inkscape"
   xmlns:sodipodi="http://sodipodi.sourceforge.net/DTD/sodipodi-0.dtd"
   xmlns="http://www.w3.org/2000/svg"
   xmlns:svg="http://www.w3.org/2000/svg">
  <defs
     id="defs2" />
  <sodipodi:namedview
     id="namedview2"
     pagecolor="#505050"
     bordercolor="#ffffff"
     borderopacity="1"
     inkscape:showpageshadow="0"
     inkscape:pageopacity="0"
     inkscape:pagecheckerboard="1"
     inkscape:deskcolor="#505050"
     inkscape:zoom="5.7586776"
     inkscape:cx="42.110362"
     inkscape:cy="42.631315"
     inkscape:window-width="1366"
     inkscape:window-height="705"
     inkscape:window-x="-8"
     inkscape:window-y="-8"
     inkscape:window-maximized="1"
     inkscape:current-layer="svg2" />
  <g
     id="g4"
     transform="matrix(1.5204243,0,0,1.5204243,-0.28972952,-1.1844625)">
    <rect
       style="fill:#b13d7c;fill-opacity:0.75;stroke-width:1.50615"
       id="rect3"
       width="61.091999"
       height="61.091999"
       x="0.22227319"
       y="0.8890934"
       rx="3.9546893"
       ry="3.9546893" />
    <rect
       style="fill:#b13d7c;fill-opacity:1;stroke-width:1.46169"
       id="rect2"
       width="59.292"
       height="59.292"
       x="1.3540001"
       y="1.3540001"
       rx="3.8381698"
       ry="3.8381698" />
  </g>
  <g
     id="g3"
     transform="matrix(0.95263182,0,0,0.95263182,2.2603926,4.1079221)">
    <g
       transform="translate(-4.9548875,-956.45726)"
       id="g1"
       style="fill:#141452;fill-opacity:0.7">
      <path
         style="color:#000000;fill:#141452;fill-opacity:0.7;enable-background:accumulate"
         d="m 40,981.36216 c -3.324,0 -6,2.67599 -6,6 v 30.00004 c 0,3.324 2.676,6 6,6 h 48 c 3.324,0 6,-2.676 6,-6 v -30.00004 c 0,-3.32401 -2.676,-6 -6,-6 z m -32.0000002,7 c -1.1046,0 -2,0.8954 -2,2 0,1.1046 0.8954,2 2,2 H 28 c 1.1046,0 2,-0.8954 2,-2 0,-1.1046 -0.8954,-2 -2,-2 z m 36.7812002,1 a 2.0002,2.0002 0 0 1 1.625,0.59375 l 15.9376,15.81249 c 0.7336,0.7281 2.5124,0.7297 3.25,0 l 16,-15.81249 a 2.0002,2.0002 0 1 1 2.8124,2.84375 l -10.0937,9.96874 10.0313,9.125 a 2.0023091,2.0023091 0 1 1 -2.6876,2.9688 l -10.1874,-9.25 -3.0313,3 c -2.4525,2.4266 -6.4547,2.4323 -8.9063,0 l -3.0312,-3 -10.1562,9.25 a 2.0023091,2.0023091 0 1 1 -2.6876,-2.9688 l 10,-9.0937 -10.0624,-10.00004 a 2.0002,2.0002 0 0 1 1.1874,-3.4375 z M 12,1000.3622 c -1.1046,0 -2.0000002,0.8954 -2.0000002,2 0,1.1046 0.8954002,2 2.0000002,2 h 16 c 1.1046,0 2,-0.8954 2,-2 0,-1.1046 -0.8954,-2 -2,-2 z m 4,12 c -1.1046,0 -2,0.8954 -2,2 0,1.1046 0.8954,2 2,2 h 12 c 1.1046,0 2,-0.8954 2,-2 0,-1.1046 -0.8954,-2 -2,-2 z"
         fill="#000000"
         marker="none"
         visibility="visible"
         display="inline"
         overflow="visible"
         id="path1" />
    </g>
    <g
       transform="translate(-2.1664021,-959.26718)"
       id="g2"
       style="fill:#eeb9b9;fill-opacity:1">
      <path
         style="color:#000000;fill:#eeb9b9;fill-opacity:1;enable-background:accumulate"
         d="m 40,981.36216 c -3.324,0 -6,2.67599 -6,6 v 30.00004 c 0,3.324 2.676,6 6,6 h 48 c 3.324,0 6,-2.676 6,-6 v -30.00004 c 0,-3.32401 -2.676,-6 -6,-6 z m -32.0000002,7 c -1.1046,0 -2,0.8954 -2,2 0,1.1046 0.8954,2 2,2 H 28 c 1.1046,0 2,-0.8954 2,-2 0,-1.1046 -0.8954,-2 -2,-2 z m 36.7812002,1 a 2.0002,2.0002 0 0 1 1.625,0.59375 l 15.9376,15.81249 c 0.7336,0.7281 2.5124,0.7297 3.25,0 l 16,-15.81249 a 2.0002,2.0002 0 1 1 2.8124,2.84375 l -10.0937,9.96874 10.0313,9.125 a 2.0023091,2.0023091 0 1 1 -2.6876,2.9688 l -10.1874,-9.25 -3.0313,3 c -2.4525,2.4266 -6.4547,2.4323 -8.9063,0 l -3.0312,-3 -10.1562,9.25 a 2.0023091,2.0023091 0 1 1 -2.6876,-2.9688 l 10,-9.0937 -10.0624,-10.00004 a 2.0002,2.0002 0 0 1 1.1874,-3.4375 z M 12,1000.3622 c -1.1046,0 -2.0000002,0.8954 -2.0000002,2 0,1.1046 0.8954002,2 2.0000002,2 h 16 c 1.1046,0 2,-0.8954 2,-2 0,-1.1046 -0.8954,-2 -2,-2 z m 4,12 c -1.1046,0 -2,0.8954 -2,2 0,1.1046 0.8954,2 2,2 h 12 c 1.1046,0 2,-0.8954 2,-2 0,-1.1046 -0.8954,-2 -2,-2 z"
         fill="#000000"
         marker="none"
         visibility="visible"
         display="inline"
         overflow="visible"
         id="path1-2" />
    </g>
  </g>
</svg>
